<?xml version="1.0" standalone="no"?><!DOCTYPE svg PUBLIC "-//W3C//DTD SVG 1.1//EN" "http://www.w3.org/Graphics/SVG/1.1/DTD/svg11.dtd"><svg t="1737016551840" class="icon" viewBox="0 0 1102 1024" version="1.1" xmlns="http://www.w3.org/2000/svg" p-id="8504" xmlns:xlink="http://www.w3.org/1999/xlink" width="215.234375" height="200"><path d="M0 150.606769h202.594462c7.168 0 10.161231 2.126769 12.20923 9.137231 43.953231 147.062154 88.221538 294.045538 132.568616 441.107692 0.787692 3.465846 2.126769 7.010462 4.174769 13.548308 2.126769-5.671385 3.859692-8.743385 5.12-12.209231 70.892308-197.395692 141.390769-394.318769 211.889231-591.635692 2.914462-8.349538 6.695385-10.948923 14.729846-10.476308 66.244923 0.393846 132.962462 0.393846 200.861538 0.393846l-4.174769 11.421539-89.875692 228.430769c-2.993231 7.876923-7.168 11.815385-15.202462 13.548308-42.614154 10.003692-82.313846 27.569231-115.633231 57.737846-78.532923 70.892308-91.214769 184.635077-38.83323 273.880615 3.780923 6.144 6.695385 13.154462 11.815384 17.959385 10.082462 9.609846 8.822154 18.904615 3.780923 30.72-26.151385 63.015385-51.042462 126.030769-76.406153 189.44-2.914462 6.931692-6.301538 9.609846-13.942154 9.609846-66.166154-0.472615-132.096-0.472615-198.340923 0-7.640615 0-11.027692-2.205538-13.548308-9.609846a411013.907692 411013.907692 0 0 0-230.793846-662.528A137.609846 137.609846 0 0 0 0 150.606769z" fill="#1296db" p-id="8505"></path><path d="M1008.718769 546.894769c-12.996923-27.726769-34.658462-43.638154-58.052923-57.265231-47.655385-28.199385-98.776615-47.576615-154.230154-52.854153a157.774769 157.774769 0 0 0-71.443692 8.349538c-27.254154 10.555077-41.117538 40.96-26.781538 62.542769a65.614769 65.614769 0 0 0 28.514461 23.788308c23.788308 10.161231 48.521846 18.510769 73.649231 24.654769 57.580308 14.178462 113.427692 33.870769 164.627692 64.354462 37.179077 21.976615 67.505231 51.042462 84.834462 92.475077 33.792 79.241846-2.205538 176.994462-71.916308 221.026461-36.785231 23.394462-77.115077 35.682462-119.965538 40.96-27.726769 3.544615-55.926154 5.277538-84.04677 5.277539-50.648615-0.393846-98.697846-15.36-145.486769-34.343385-47.261538-18.904615-91.844923-42.692923-131.229538-75.303385-8.270769-6.616615-8.664615-12.288-4.332308-21.110153 21.661538-48.049231 42.456615-96.492308 63.251692-143.990154 42.850462 73.097846 113.900308 101.297231 188.809846 121.540923 36.785231 10.082462 74.909538 14.099692 113.427693 9.216 19.140923-2.205538 35.997538-7.876923 42.535384-28.199385 6.852923-21.110154 4.726154-42.220308-13.469538-55.926154-17.329231-13.233231-36.391385-25.993846-57.186462-32.610461-39.857231-12.288-80.580923-21.110154-121.304615-29.932308-61.046154-13.154462-116.499692-36.076308-155.017846-89.796923-60.179692-83.731692-34.658462-207.950769 52.775384-261.592615 36.864-22.528 77.193846-33.476923 119.650462-39.227077a468.676923 468.676923 0 0 1 116.499692-2.205539 417.555692 417.555692 0 0 1 211.337846 82.392616c7.325538 5.277538 14.729846 11.027692 21.267693 17.171692 2.126769 2.205538 3.387077 7.483077 2.520615 10.082462-22.055385 45.843692-44.977231 92.475077-69.316923 140.524307z" fill="#1296db" p-id="8506"></path></svg>